REM DIRINDEX 1\2,1\3,1\4,1\6,1\5\7,1\5\8
REM DIRNAME cjc114,folder01,folder02,folder03,folder04,folder05,folder06,folder07
TITLE ""
FILE "DB4500_5th_5C_02.mp3" MP3
  TRACK 01 AUDIO
    TITLE "0:"
    INDEX 01 00:00:00
  TRACK 02 AUDIO
    TITLE "2:cjc114_3255"
    INDEX 01 00:00:01
  TRACK 03 AUDIO
    TITLE "0:"
    INDEX 01 00:00:74
  TRACK 04 AUDIO
    TITLE "3:cjc114_3256"
    INDEX 01 00:01:15
  TRACK 05 AUDIO
    TITLE "0:"
    INDEX 01 00:02:55
  TRACK 06 AUDIO
    TITLE "4:cjc114_3257"
    INDEX 01 00:02:71
  TRACK 07 AUDIO
    TITLE "0:"
    INDEX 01 00:05:73
  TRACK 08 AUDIO
    TITLE "2:cjc114_3258"
    INDEX 01 00:06:37
  TRACK 09 AUDIO
    TITLE "0:"
    INDEX 01 00:07:45
  TRACK 10 AUDIO
    TITLE "3:cjc114_3259"
    INDEX 01 00:07:60
  TRACK 11 AUDIO
    TITLE "0:"
    INDEX 01 00:09:16
  TRACK 12 AUDIO
    TITLE "4:cjc114_3260"
    INDEX 01 00:09:30
  TRACK 13 AUDIO
    TITLE "0:"
    INDEX 01 00:13:04
  TRACK 14 AUDIO
    TITLE "2:cjc114_3261"
    INDEX 01 00:13:39
  TRACK 15 AUDIO
    TITLE "0:"
    INDEX 01 00:14:60
  TRACK 16 AUDIO
    TITLE "3:cjc114_3262"
    INDEX 01 00:15:01
  TRACK 17 AUDIO
    TITLE "0:"
    INDEX 01 00:15:74
  TRACK 18 AUDIO
    TITLE "4:cjc114_3263"
    INDEX 01 00:16:12
  TRACK 19 AUDIO
    TITLE "0:"
    INDEX 01 00:19:36
  TRACK 20 AUDIO
    TITLE "2:cjc114_3264"
    INDEX 01 00:20:00
  TRACK 21 AUDIO
    TITLE "0:"
    INDEX 01 00:21:00
  TRACK 22 AUDIO
    TITLE "3:cjc114_3265"
    INDEX 01 00:21:11
  TRACK 23 AUDIO
    TITLE "0:"
    INDEX 01 00:22:17
  TRACK 24 AUDIO
    TITLE "4:cjc114_3266"
    INDEX 01 00:22:30
  TRACK 25 AUDIO
    TITLE "0:"
    INDEX 01 00:24:55
  TRACK 26 AUDIO
    TITLE "2:cjc114_3267"
    INDEX 01 00:25:17
  TRACK 27 AUDIO
    TITLE "0:"
    INDEX 01 00:26:32
  TRACK 28 AUDIO
    TITLE "3:cjc114_3268"
    INDEX 01 00:26:46
  TRACK 29 AUDIO
    TITLE "0:"
    INDEX 01 00:27:57
  TRACK 30 AUDIO
    TITLE "4:cjc114_3269"
    INDEX 01 00:27:73
  TRACK 31 AUDIO
    TITLE "0:"
    INDEX 01 00:31:06
  TRACK 32 AUDIO
    TITLE "2:cjc114_3270"
    INDEX 01 00:31:43
  TRACK 33 AUDIO
    TITLE "0:"
    INDEX 01 00:32:50
  TRACK 34 AUDIO
    TITLE "3:cjc114_3271"
    INDEX 01 00:32:66
  TRACK 35 AUDIO
    TITLE "0:"
    INDEX 01 00:33:68
  TRACK 36 AUDIO
    TITLE "4:cjc114_3272"
    INDEX 01 00:34:06
  TRACK 37 AUDIO
    TITLE "0:"
    INDEX 01 00:36:70
  TRACK 38 AUDIO
    TITLE "2:cjc114_3273"
    INDEX 01 00:37:32
  TRACK 39 AUDIO
    TITLE "0:"
    INDEX 01 00:38:33
  TRACK 40 AUDIO
    TITLE "3:cjc114_3274"
    INDEX 01 00:38:45
  TRACK 41 AUDIO
    TITLE "0:"
    INDEX 01 00:39:52
  TRACK 42 AUDIO
    TITLE "4:cjc114_3275"
    INDEX 01 00:39:66
  TRACK 43 AUDIO
    TITLE "0:"
    INDEX 01 00:42:33
  TRACK 44 AUDIO
    TITLE "2:cjc114_3276"
    INDEX 01 00:42:72
  TRACK 45 AUDIO
    TITLE "0:"
    INDEX 01 00:44:03
  TRACK 46 AUDIO
    TITLE "3:cjc114_3277"
    INDEX 01 00:44:16
  TRACK 47 AUDIO
    TITLE "0:"
    INDEX 01 00:46:45
  TRACK 48 AUDIO
    TITLE "4:cjc114_3278"
    INDEX 01 00:46:58
  TRACK 49 AUDIO
    TITLE "0:"
    INDEX 01 00:50:19
  TRACK 50 AUDIO
    TITLE "2:cjc114_3279"
    INDEX 01 00:50:58
  TRACK 51 AUDIO
    TITLE "0:"
    INDEX 01 00:51:63
  TRACK 52 AUDIO
    TITLE "3:cjc114_3280"
    INDEX 01 00:52:02
  TRACK 53 AUDIO
    TITLE "0:"
    INDEX 01 00:52:61
  TRACK 54 AUDIO
    TITLE "4:cjc114_3281"
    INDEX 01 00:52:73
  TRACK 55 AUDIO
    TITLE "0:"
    INDEX 01 00:57:43
  TRACK 56 AUDIO
    TITLE "2:cjc114_3282"
    INDEX 01 00:58:05
  TRACK 57 AUDIO
    TITLE "0:"
    INDEX 01 00:58:73
  TRACK 58 AUDIO
    TITLE "3:cjc114_3283"
    INDEX 01 00:59:12
  TRACK 59 AUDIO
    TITLE "0:"
    INDEX 01 00:59:69
  TRACK 60 AUDIO
    TITLE "4:cjc114_3284"
    INDEX 01 01:00:06
  TRACK 61 AUDIO
    TITLE "0:"
    INDEX 01 01:02:57
  TRACK 62 AUDIO
    TITLE "2:cjc114_3285"
    INDEX 01 01:03:22
  TRACK 63 AUDIO
    TITLE "0:"
    INDEX 01 01:04:17
  TRACK 64 AUDIO
    TITLE "3:cjc114_3286"
    INDEX 01 01:04:31
  TRACK 65 AUDIO
    TITLE "0:"
    INDEX 01 01:05:36
  TRACK 66 AUDIO
    TITLE "4:cjc114_3287"
    INDEX 01 01:05:48
  TRACK 67 AUDIO
    TITLE "0:"
    INDEX 01 01:10:00
